<svg width="289" height="280" viewBox="0 0 289 280" fill="none" xmlns="http://www.w3.org/2000/svg">
<path d="M135.653 271.424C135.653 275.731 105.248 276.19 67.8265 279.223C30.4399 282.254 0 275.731 0 271.424C0 267.116 30.5801 258.449 67.8265 263.624C105.248 268.824 135.653 267.116 135.653 271.424Z" fill="#E6E6E6"/>
<path d="M278.423 0.000467264H198.271C194.404 0.000461826 190.651 1.70261 187.63 4.8271C184.609 7.9516 182.5 12.3125 181.65 17.193L141.151 249.555C140.709 252.089 140.701 254.718 141.128 257.257C141.555 259.795 142.406 262.183 143.621 264.251C144.836 266.319 146.387 268.019 148.164 269.23C149.941 270.442 151.901 271.136 153.907 271.263L236.303 276.515C240.715 276.796 245.056 274.991 248.515 271.437C251.973 267.883 254.314 262.822 255.101 257.199L278.074 92.9171L279.783 93.5487L284.179 62.4111L282.42 61.8422L288.832 15.9851C289.107 14.021 289.043 12.0026 288.646 10.074C288.248 8.14532 287.527 6.35385 286.533 4.82728C285.538 3.30071 284.296 2.07663 282.894 1.24231C281.493 0.407984 279.966 -0.0160409 278.423 0.000463977L278.423 0.000467264Z" fill="#3F3D56"/>
<path d="M208.734 4.83948H199.392C196.709 4.83948 194.107 6.02709 192.018 8.20516C189.928 10.3832 188.477 13.4208 187.905 16.8135L149.091 247.079C148.867 248.405 148.868 249.778 149.092 251.103C149.315 252.429 149.758 253.676 150.388 254.76C151.019 255.845 151.823 256.74 152.745 257.385C153.667 258.03 154.686 258.41 155.732 258.499L237.737 265.455C240.05 265.652 242.338 264.738 244.165 262.89C245.991 261.042 247.228 258.388 247.639 255.434L280.759 17.432C280.974 15.8915 280.924 14.3089 280.615 12.7959C280.305 11.2829 279.742 9.87633 278.967 8.67543C278.191 7.47454 277.221 6.50861 276.126 5.84581C275.03 5.18301 273.836 4.83948 272.627 4.83948H263.764C262.907 4.83948 262.073 5.20548 261.392 5.88082C260.711 6.55615 260.221 7.50315 259.998 8.5752C259.802 9.52163 259.369 10.3577 258.768 10.9539C258.167 11.5501 257.431 11.8732 256.674 11.8732H214.602C213.119 11.8732 211.691 11.1487 210.603 9.84468C209.515 8.54063 208.847 6.7531 208.734 4.83948V4.83948Z" fill="white"/>
<path d="M120.908 123.18L128.142 141.866L149.772 154.697C152.081 159.791 159.421 160.181 159.955 156.887C160.554 153.192 151.042 147.244 151.042 147.244L132.951 131.277L131.368 117.531L120.908 123.18Z" fill="#A0616A"/>
<path d="M121.438 247.506L120.171 261.333L127.52 262.025L128.281 247.506H121.438Z" fill="#A0616A"/>
<path d="M122.817 259.674C122.123 258.718 121.484 257.699 120.903 256.625C119.791 254.621 118.805 264.9 118.805 264.9C118.805 264.9 117.735 269.081 118.002 271.172C118.27 273.262 124.421 273.262 125.491 272.914C126.561 272.565 131.911 272.914 131.911 272.914H139.935C146.889 268.733 139.935 265.945 139.935 265.945C137.795 265.597 130.573 256.886 130.573 256.886L128.968 253.054C127.899 252.705 126.829 257.932 126.829 257.932L122.817 259.674Z" fill="#2F2E41"/>
<path d="M101.533 248.198L100.265 262.025L107.615 262.716L108.375 248.198H101.533Z" fill="#A0616A"/>
<path d="M102.174 259.731C101.48 258.768 100.841 257.74 100.26 256.656C99.148 254.634 98.1616 265.003 98.1616 265.003C98.1616 265.003 97.0917 268.869 97.3592 270.978C97.6267 273.086 103.779 273.086 104.848 272.735C105.918 272.383 111.268 273.086 111.268 273.086H119.292C126.246 268.869 119.292 266.057 119.292 266.057C117.152 265.706 109.93 256.92 109.93 256.92L108.326 253.054C107.256 252.702 106.186 257.974 106.186 257.974L102.174 259.731Z" fill="#2F2E41"/>
<path d="M109.932 159.086C108.865 160.809 109.398 166.664 109.398 166.664C109.398 166.664 107.531 185.608 108.331 187.33C109.132 189.052 107.798 190.43 106.998 192.841C106.197 195.252 105.397 201.107 105.397 201.107C100.862 205.929 101.129 227.972 101.129 227.972L99.5281 247.605C100.062 249.671 107.531 250.016 108.598 249.671C109.665 249.327 112.866 218.328 112.866 218.328L120.069 200.762C120.069 200.762 119.536 247.605 119.536 249.671C119.536 251.738 126.738 250.705 128.339 250.705C129.939 250.705 129.939 216.262 129.939 216.262L131.54 207.307L140.077 166.319V161.497L138.743 159.086C138.743 159.086 110.999 157.364 109.932 159.086Z" fill="#2F2E41"/>
<path d="M122.014 80.1975C126.697 80.1975 130.492 75.5546 130.492 69.8272C130.492 64.0998 126.697 59.4568 122.014 59.4568C117.332 59.4568 113.536 64.0998 113.536 69.8272C113.536 75.5546 117.332 80.1975 122.014 80.1975Z" fill="#A0616A"/>
<path d="M126.271 74.6667C124.545 79.5915 125.567 86.4703 129.018 94.0247L115.01 85.5776L117.208 83.1138L116.658 76.0745L126.271 74.6667Z" fill="#A0616A"/>
<path d="M125.868 85.7217C127.658 87.0909 128.729 89.6065 129.344 92.1664C130.482 96.9057 131.167 101.806 131.384 106.758L132.034 121.585L140.076 160.897C133.106 168.483 129.085 166.759 119.702 160.552C110.319 154.345 109.246 162.621 109.246 162.621C109.246 162.621 108.442 162.276 109.246 161.242C110.051 160.207 109.246 161.242 108.442 160.207C107.638 159.173 108.442 160.207 108.71 159.173C108.978 158.138 108.71 158.828 108.442 158.483C108.174 158.138 109.514 155.035 109.514 155.035L107.37 129.172L104.689 92.6185C107.906 87.4459 117.021 82.963 117.021 82.963L125.332 90.5494C128.012 91.9288 125.868 86.4113 125.868 86.4113L125.868 85.7217Z" fill="#06A881"/>
<path d="M100.613 114.765L99.5281 135.506L113.366 160.741C113.366 166.617 115.808 168 115.808 168C116.733 166.119 117.549 164.155 118.25 162.123C119.607 158.321 117.436 155.21 117.436 155.21L107.94 129.63L112.01 116.84L100.613 114.765Z" fill="#A0616A"/>
<path d="M105.005 92.663C100.35 94.7355 99.5281 117.187 99.5281 117.187C105.005 113.388 111.577 119.605 111.577 119.605C111.577 119.605 112.946 113.733 114.589 106.134C115.085 103.997 115.144 101.735 114.761 99.5613C114.378 97.3871 113.565 95.3705 112.398 93.6993C112.398 93.6993 109.66 90.5906 105.005 92.663Z" fill="#06A881"/>
<path d="M114.094 73.0695C115.172 71.9617 116.642 73.9753 116.642 73.9753L117.504 64.0054C117.504 64.0054 122.891 64.8362 126.339 63.7285C129.786 62.6207 130.325 67.7441 130.325 67.7441C130.503 65.6751 130.539 63.59 130.433 61.5129C130.217 59.0204 127.416 56.5279 122.46 54.8663C117.504 53.2046 114.918 60.4051 114.918 60.4051C111.47 62.6207 113.017 74.1773 114.094 73.0695Z" fill="#2F2E41"/>
<path d="M255.127 165.925C255.288 165.933 255.446 165.866 255.572 165.737C255.699 165.607 255.785 165.424 255.816 165.219L274.244 35.4668C274.262 35.3433 274.258 35.2163 274.234 35.0948C274.209 34.9732 274.165 34.8599 274.103 34.763C274.042 34.666 273.964 34.5876 273.877 34.5333C273.789 34.4791 273.693 34.4501 273.596 34.4486L189.754 33.1852H189.746C189.595 33.1859 189.448 33.2529 189.33 33.3752C189.212 33.4976 189.129 33.668 189.095 33.8589L167.371 159.4C167.349 159.522 167.349 159.65 167.37 159.772C167.391 159.895 167.432 160.011 167.491 160.11C167.55 160.21 167.625 160.293 167.711 160.351C167.797 160.41 167.892 160.443 167.989 160.449L255.127 165.925Z" fill="#E6E6E6"/>
<path d="M182.465 174.222C182.39 174.222 182.317 174.254 182.259 174.314C182.2 174.373 182.159 174.456 182.142 174.549L181.371 178.753C181.36 178.813 181.359 178.874 181.369 178.934C181.379 178.994 181.399 179.05 181.427 179.1C181.456 179.149 181.492 179.189 181.534 179.219C181.576 179.248 181.623 179.266 181.671 179.27L225.237 183.209C225.318 183.215 225.398 183.185 225.462 183.122C225.526 183.059 225.57 182.969 225.587 182.868L226.328 178.004C226.337 177.945 226.336 177.884 226.325 177.826C226.314 177.767 226.294 177.712 226.265 177.665C226.236 177.617 226.199 177.578 226.157 177.55C226.115 177.522 226.069 177.506 226.022 177.502L182.485 174.223C182.478 174.223 182.472 174.222 182.465 174.222Z" fill="#E6E6E6"/>
<path d="M235.348 199.11C235.427 199.117 235.505 199.09 235.569 199.033C235.633 198.976 235.679 198.893 235.698 198.799L236.646 194.061C236.658 194.003 236.659 193.942 236.649 193.883C236.64 193.825 236.62 193.769 236.592 193.721C236.563 193.672 236.526 193.632 236.483 193.603C236.441 193.574 236.394 193.557 236.345 193.553L180.492 188.742C180.416 188.735 180.341 188.76 180.278 188.813C180.216 188.866 180.17 188.945 180.149 189.035L179.164 193.129C179.15 193.187 179.147 193.249 179.155 193.309C179.162 193.37 179.181 193.427 179.209 193.478C179.237 193.528 179.274 193.57 179.317 193.601C179.36 193.631 179.408 193.65 179.457 193.654L235.348 199.11Z" fill="#E6E6E6"/>
<path d="M232.399 215.011C232.478 215.019 232.556 214.992 232.621 214.935C232.685 214.878 232.73 214.795 232.749 214.7L233.697 209.962C233.709 209.904 233.71 209.843 233.7 209.785C233.691 209.726 233.671 209.67 233.643 209.622C233.614 209.574 233.577 209.533 233.535 209.504C233.492 209.476 233.445 209.458 233.396 209.454L177.543 204.643C177.467 204.636 177.392 204.661 177.329 204.714C177.267 204.768 177.221 204.846 177.2 204.936L176.215 209.03C176.201 209.089 176.198 209.15 176.206 209.211C176.213 209.271 176.232 209.328 176.26 209.379C176.288 209.429 176.325 209.471 176.368 209.502C176.411 209.532 176.459 209.551 176.508 209.556L232.399 215.011Z" fill="#E6E6E6"/>
<path d="M206.997 242.664C207.077 242.675 207.157 242.648 207.223 242.587C207.288 242.526 207.335 242.436 207.353 242.334L209.367 231.795C209.379 231.733 209.381 231.669 209.372 231.606C209.363 231.544 209.343 231.485 209.315 231.433C209.287 231.381 209.25 231.338 209.208 231.307C209.166 231.276 209.119 231.256 209.071 231.251L174.596 227.458C174.516 227.451 174.436 227.481 174.371 227.543C174.306 227.606 174.26 227.697 174.241 227.799L172.523 237.915C172.513 237.975 172.513 238.038 172.522 238.099C172.532 238.16 172.551 238.217 172.579 238.268C172.607 238.318 172.643 238.36 172.685 238.39C172.726 238.421 172.772 238.44 172.819 238.446L206.997 242.664Z" fill="#06A881"/>
</svg>
